<svg width="278" height="121" viewBox="0 0 278 121" fill="none" xmlns="http://www.w3.org/2000/svg">
<path d="M151.385 96H141.629L129.5 77.543L117.239 96H107.615L124.71 71.6982L108.978 49.374H118.777C125.164 59.0127 128.65 64.3887 129.236 65.502L140.662 49.374H150.11L133.982 71.2588L151.385 96ZM198.538 74.6865H163.602C163.924 79.8428 165.389 83.7832 167.996 86.5078C170.633 89.2324 173.914 90.5947 177.84 90.5947C180.857 90.5947 183.392 89.8037 185.442 88.2217C187.493 86.6104 189.061 84.1934 190.145 80.9707L198.274 81.9814C196.956 86.8447 194.539 90.5801 191.023 93.1875C187.508 95.7949 183.113 97.0986 177.84 97.0986C170.838 97.0986 165.359 94.96 161.404 90.6826C157.479 86.376 155.516 80.502 155.516 73.0605C155.516 65.707 157.42 59.7451 161.229 55.1748C165.066 50.6045 170.457 48.3193 177.4 48.3193C180.799 48.3193 184.065 49.0664 187.2 50.5605C190.364 52.0547 193.045 54.6035 195.242 58.207C197.439 61.7812 198.538 67.2744 198.538 74.6865ZM190.408 68.1826C190.086 63.4365 188.606 60.0234 185.97 57.9434C183.362 55.834 180.506 54.7793 177.4 54.7793C173.68 54.7793 170.618 56.0244 168.216 58.5146C165.813 61.0049 164.422 64.2275 164.041 68.1826H190.408ZM226.312 95.9121C223.968 96.3809 221.99 96.6152 220.379 96.6152C216.922 96.6152 214.402 96.0146 212.82 94.8135C211.238 93.583 210.271 92.0303 209.92 90.1553C209.568 88.2803 209.393 85.6729 209.393 82.333V55.4824H203.636V49.374H209.393V37.7725L217.303 32.9824V49.374H225.213V55.4824H217.303V82.7725C217.303 85.1162 217.537 86.7861 218.006 87.7822C218.504 88.749 219.734 89.2324 221.697 89.2324C222.84 89.2324 224.012 89.1152 225.213 88.8809L226.312 95.9121ZM273.597 96H265.291C264.529 94.5352 263.987 92.6162 263.665 90.2432C258.362 94.8135 252.635 97.0986 246.482 97.0986C241.561 97.0986 237.679 95.8682 234.837 93.4072C231.995 90.9463 230.574 87.6943 230.574 83.6514C230.574 79.7842 231.937 76.6055 234.661 74.1152C237.415 71.5957 242.176 69.9258 248.943 69.1055L256.326 68.0068C259.08 67.5674 261.351 67.0254 263.138 66.3809C263.138 64.0078 263.064 62.3379 262.918 61.3711C262.771 60.375 262.332 59.3496 261.6 58.2949C260.896 57.2402 259.754 56.3906 258.172 55.7461C256.59 55.1016 254.466 54.7793 251.8 54.7793C248.401 54.7793 245.706 55.4092 243.714 56.6689C241.751 57.9287 240.403 60.2725 239.671 63.7002L231.937 62.6895C232.786 57.9141 234.969 54.3252 238.484 51.9229C242 49.5205 246.834 48.3193 252.986 48.3193C258.582 48.3193 262.684 49.1543 265.291 50.8242C267.928 52.4648 269.539 54.457 270.125 56.8008C270.74 59.1445 271.048 62.1621 271.048 65.8535V76.4883C271.048 82.9629 271.165 87.3135 271.399 89.54C271.663 91.7373 272.396 93.8906 273.597 96ZM263.138 75.4775V72.6211C259.007 73.998 253.953 75.0967 247.977 75.917C242 76.708 239.012 79.2275 239.012 83.4756C239.012 85.6143 239.817 87.3867 241.429 88.793C243.04 90.1699 245.354 90.8584 248.372 90.8584C252.269 90.8584 255.696 89.7012 258.655 87.3867C261.644 85.043 263.138 81.0732 263.138 75.4775Z" fill="white"/>
<rect y="42.7047" width="20" height="100" rx="10" transform="rotate(-47.327 0 42.7047)" fill="url(#paint0_linear_25_17)" fill-opacity="0.8"/>
<circle cx="18.5" cy="95.5" r="12.5" fill="url(#paint1_linear_25_17)" fill-opacity="0.8"/>
<defs>
<linearGradient id="paint0_linear_25_17" x1="10" y1="42.7047" x2="10" y2="142.705" gradientUnits="userSpaceOnUse">
<stop stop-color="#279B44" stop-opacity="0.4"/>
<stop offset="1" stop-color="#279B44"/>
</linearGradient>
<linearGradient id="paint1_linear_25_17" x1="18.5" y1="83" x2="18.5" y2="108" gradientUnits="userSpaceOnUse">
<stop stop-color="#279B44" stop-opacity="0.4"/>
<stop offset="1" stop-color="#279B44"/>
</linearGradient>
</defs>
</svg>
